<?xml version="1.0" standalone="no"?><svg data-noselect="" 
  viewBox="71.12809699160499 131 451 338.10868549945" 
  width="451" 
  height="338.10868549945" 
  ref="svg_canvas" 
  preserveAspectRatio="none" 
  version="1.1" xmlns="http://www.w3.org/2000/svg" 
  style="background: #ffffff;">
    <defs></defs>
    <g id="shape_h1emw1ET4L" class=""  ref="shape_h1emw1ET4L" key="shape_h1emw1ET4L" transform="translate(196.82564503518,211) rotate(0,76.52236321162,86.345039742092) scale(1,1)" style="cursor:move;display:inline;opacity:1;" filter="">
            <g style="display:inline"><rect fill="rgba(0,0,0,0)" width="173.04472642323964" height="192.69007948418488" x="-10" y="-10"></rect><svg version="1.1" id="图层_1" xmlns="http://www.w3.org/2000/svg" xmlns:xlink="http://www.w3.org/1999/xlink" x="0px" y="0px" width="153.04472642323964" height="172.69007948418488" viewBox="0 0 226.7 255.8" enable-background="new 0 0 226.7 255.8" xml:space="preserve" class="style-removed" preserveAspectRatio="none" data-parent="shape_h1emw1ET4L">
<g>
	<g>
		<polygon fill="#01E9CE" points="226.7,0 24.6,28.4 64.2,57.7 		" stroke-width="0"></polygon>
		<polyline fill="#3485F9" points="226.7,0 103.2,162 95.1,113.6 		" stroke-width="0"></polyline>
		<g>
			<path fill="#04CDB1" d="M109.7,60.4c1.9-0.3,3.8,0.3,5.3,1.4L226.7,0L64.2,57.7l39.3,10.4C103.2,64.3,105.9,61,109.7,60.4z" stroke-width="0"></path>
			<path fill="#0359D8" d="M226.7,0L117.8,66.5c0,0,0,0.1,0,0.1c0.5,4-2.2,7.6-6.2,8.2c-1.9,0.3-3.7-0.3-5.2-1.3l-11.4,40.1L226.7,0
				z" stroke-width="0"></path>
		</g>
	</g>
	<path fill="#3485F9" d="M140.3,255.8C-9.3,202.2,97.4,75,97.4,75S-66.8,213.7,140.3,255.8z" stroke-width="0"></path>
	<path fill="#04CDB1" d="M91.6,75c0,0-110,69.6-67,136.6C24.6,211.6-62.7,154.6,91.6,75z" stroke-width="0"></path>
</g>
</svg></g>
        </g><g id="shape_DpbQu1xYWA" class="brand_slogan"  ref="shape_DpbQu1xYWA" key="shape_DpbQu1xYWA" transform="translate(266.58054894802996,280.55868549945) rotate(0,181.81890071653999,93.05000000000001) scale(1,1)" style="cursor:move;display:inline;opacity:1;" filter="">
            <g style="display:inline"><svg xmlns="http://www.w3.org/2000/svg" version="1.1" xmlns:xlink="http://www.w3.org/1999/xlink" width="207.4" height="186.10000000000002" viewBox="0 0 207.4 186.10000000000002" preserveAspectRatio="none" data-parent="shape_DpbQu1xYWA"><rect fill="rgba(0,0,0,0)" width="104" height="31" x="25.85" y="77.55000000000001"></rect><g data-width="103.8478678782163" transform="translate(25.85, 0)"><path d="M4.61-2.98L4.61-21.00L1.26-21.00L1.26-2.98L4.61-2.98Z" transform="translate(0 100.55000000000001) skewX(0)" fill="#0359d8" stroke="#0359d8" stroke-width="0.043" data-glyph-w="7.035988367589536" data-glyph-h="26.935498046875" data-glyph-ascender="21.659472656250003" data-glyph-descender="-5.2760253906250005"></path><path d="M12.08-9.28L12.08-21.00L15.42-21.00L15.42-2.98L12.13-2.98L4.61-14.70L4.61-2.98L1.26-2.98L1.26-21.00L4.56-21.00L12.08-9.28Z" transform="translate(7.035988367589536 100.55000000000001) skewX(0)" fill="#0359d8" stroke="#0359d8" stroke-width="0.043" data-glyph-w="17.853102625402038" data-glyph-h="26.935498046875" data-glyph-ascender="21.659472656250003" data-glyph-descender="-5.2760253906250005"></path><path d="M1.26-21.00L12.85-21.00L12.85-17.66L4.61-17.66L4.61-13.66L12.85-13.66L12.85-10.31L4.61-10.31L4.61-2.98L1.26-2.98L1.26-21.00Z" transform="translate(24.889090992991573 100.55000000000001) skewX(0)" fill="#0359d8" stroke="#0359d8" stroke-width="0.043" data-glyph-w="14.773317469152039" data-glyph-h="26.935498046875" data-glyph-ascender="21.659472656250003" data-glyph-descender="-5.2760253906250005"></path><path d="M4.61-2.98L4.61-21.00L1.26-21.00L1.26-2.98L4.61-2.98Z" transform="translate(39.66240846214361 100.55000000000001) skewX(0)" fill="#0359d8" stroke="#0359d8" stroke-width="0.043" data-glyph-w="7.035988367589536" data-glyph-h="26.935498046875" data-glyph-ascender="21.659472656250003" data-glyph-descender="-5.2760253906250005"></path><path d="M12.08-9.28L12.08-21.00L15.42-21.00L15.42-2.98L12.13-2.98L4.61-14.70L4.61-2.98L1.26-2.98L1.26-21.00L4.56-21.00L12.08-9.28Z" transform="translate(46.69839682973315 100.55000000000001) skewX(0)" fill="#0359d8" stroke="#0359d8" stroke-width="0.043" data-glyph-w="17.853102625402038" data-glyph-h="26.935498046875" data-glyph-ascender="21.659472656250003" data-glyph-descender="-5.2760253906250005"></path><path d="M4.61-2.98L4.61-21.00L1.26-21.00L1.26-2.98L4.61-2.98Z" transform="translate(64.55149945513519 100.55000000000001) skewX(0)" fill="#0359d8" stroke="#0359d8" stroke-width="0.043" data-glyph-w="7.035988367589536" data-glyph-h="26.935498046875" data-glyph-ascender="21.659472656250003" data-glyph-descender="-5.2760253906250005"></path><path d="M5.84-2.98L5.84-17.66L0.76-17.66L0.76-21.00L14.28-21.00L14.28-17.66L9.19-17.66L9.19-2.98L5.84-2.98Z" transform="translate(71.58748782272473 100.55000000000001) skewX(0)" fill="#0359d8" stroke="#0359d8" stroke-width="0.043" data-glyph-w="16.19961141446454" data-glyph-h="26.935498046875" data-glyph-ascender="21.659472656250003" data-glyph-descender="-5.2760253906250005"></path><path d="M1.26-21.00L14.14-21.00L14.14-17.66L4.61-17.66L4.61-13.66L14.14-13.66L14.14-10.31L4.61-10.31L4.61-6.32L14.14-6.32L14.14-2.98L1.26-2.98L1.26-21.00Z" transform="translate(87.78709923718927 100.55000000000001) skewX(0)" fill="#0359d8" stroke="#0359d8" stroke-width="0.043" data-glyph-w="16.060768641027035" data-glyph-h="26.935498046875" data-glyph-ascender="21.659472656250003" data-glyph-descender="-5.2760253906250005"></path></g></svg></g>
        </g><g id="shape_wWNzsKhtmZ" class="brand_name"  ref="shape_wWNzsKhtmZ" key="shape_wWNzsKhtmZ" transform="translate(215.43054670901,40.44584001557001) rotate(0,235.06530062521,277) scale(1,1)" style="cursor:move;display:inline;opacity:1;" filter="">
            <g style="display:inline"><svg xmlns="http://www.w3.org/2000/svg" version="1.1" xmlns:xlink="http://www.w3.org/1999/xlink" width="385" height="554" viewBox="0 0 385 554" preserveAspectRatio="none" data-parent="shape_wWNzsKhtmZ"><rect fill="rgba(0,0,0,0)" width="77" height="92" x="77" y="231"></rect><g data-width="77" transform="translate(77, 0)"><path d="M38.50-33.11L38.50-33.11Q42.12-37.81 47.05-41.04Q51.98-44.27 58.60-44.27L58.60-44.27Q62.37-44.27 65.95-42.58Q69.53-40.89 71.92-37.46Q74.30-34.03 74.30-28.95L74.30-28.95Q74.30-23.87 71.92-20.44Q69.53-17.02 65.95-15.28Q62.37-13.55 58.60-13.55L58.60-13.55Q51.98-13.55 47.05-16.79Q42.12-20.02 38.50-24.72L38.50-24.72Q34.88-20.02 29.91-16.79Q24.95-13.55 18.33-13.55L18.33-13.55Q14.63-13.55 11.01-15.28Q7.39-17.02 5.00-20.44Q2.62-23.87 2.62-28.95L2.62-28.95Q2.62-34.03 5.00-37.46Q7.39-40.89 11.01-42.58Q14.63-44.27 18.33-44.27L18.33-44.27Q24.95-44.27 29.91-41.04Q34.88-37.81 38.50-33.11ZM7.93-28.95L7.93-28.95Q7.93-24.10 11.09-21.48Q14.24-18.86 18.25-18.86L18.25-18.86Q23.56-18.86 27.68-21.64Q31.80-24.41 35.11-28.95L35.11-28.95Q31.80-33.42 27.68-36.23Q23.56-39.04 18.25-39.04L18.25-39.04Q14.24-39.04 11.09-36.38Q7.93-33.73 7.93-28.95ZM41.89-28.95L41.89-28.95Q45.12-24.41 49.28-21.64Q53.44-18.86 58.75-18.86L58.75-18.86Q62.76-18.86 65.87-21.48Q68.99-24.10 68.99-28.95L68.99-28.95Q68.99-33.73 65.87-36.38Q62.76-39.04 58.75-39.04L58.75-39.04Q53.44-39.04 49.28-36.23Q45.12-33.42 41.89-28.95Z" transform="translate(0 306) " fill="#0359d8" stroke="#0359d8" stroke-width="0.128" data-glyph-w="77" data-glyph-h="77" data-glyph-ascender="67.76" data-glyph-descender="-9.24"></path></g></svg></g>
        </g>
  </svg>